<?xml version="1.0" encoding="UTF-8" standalone="no"?>
<svg
   xmlns:dc="http://purl.org/dc/elements/1.1/"
   xmlns:cc="http://creativecommons.org/ns#"
   xmlns:rdf="http://www.w3.org/1999/02/22-rdf-syntax-ns#"
   xmlns:svg="http://www.w3.org/2000/svg"
   xmlns="http://www.w3.org/2000/svg"
   xmlns:sodipodi="http://sodipodi.sourceforge.net/DTD/sodipodi-0.dtd"
   xmlns:inkscape="http://www.inkscape.org/namespaces/inkscape"
   aria-hidden="true"
   focusable="false"
   data-prefix="far"
   data-icon="money-bill-alt"
   class="svg-inline--fa fa-money-bill-alt fa-w-20"
   role="img"
   viewBox="0 0 640 512"
   version="1.1"
   id="svg4746"
   sodipodi:docname="ebill-icon.svg"
   inkscape:version="0.92.4 (f8dce91, 2019-08-02)">
  <metadata
     id="metadata4752">
    <rdf:RDF>
      <cc:Work
         rdf:about="">
        <dc:format>image/svg+xml</dc:format>
        <dc:type
           rdf:resource="http://purl.org/dc/dcmitype/StillImage" />
        <dc:title></dc:title>
      </cc:Work>
    </rdf:RDF>
  </metadata>
  <defs
     id="defs4750" />
  <sodipodi:namedview
     pagecolor="#ffffff"
     bordercolor="#666666"
     borderopacity="1"
     objecttolerance="10"
     gridtolerance="10"
     guidetolerance="10"
     inkscape:pageopacity="0"
     inkscape:pageshadow="2"
     inkscape:window-width="1280"
     inkscape:window-height="987"
     id="namedview4748"
     showgrid="false"
     inkscape:zoom="0.5"
     inkscape:cx="290.22802"
     inkscape:cy="174.42481"
     inkscape:window-x="0"
     inkscape:window-y="176"
     inkscape:window-maximized="1"
     inkscape:current-layer="svg4746" />
  <path
     style="fill:#7ac943;fill-opacity:1;stroke:none;stroke-width:1.08474576"
     d="m 387.57249,63.272905 c -120.75567,0.10745 -241.51694,0.22159 -362.269065,0.38771 -9.800812,3.75723 -19.3048576,9.79746 -23.4135416,19.92517 -3.754535,7.05753 -0.655607,15.88512 -1.68507897,23.644715 0.106868,104.96525 -1.054367,209.94313 0.354977,314.90046 2.04144297,14.89881 17.10543157,26.84836 32.16031357,25.56657 102.224355,1.36669 204.469455,0.36467 306.701965,0.56962 92.41431,-0.0913 184.83624,-0.12061 277.24578,-0.2506 8.19527,-4.09934 17.11328,-9.66566 20.78602,-18.41525 3.67696,-21.4468 1.89745,-43.45254 2.5883,-65.12708 0.10704,-91.92237 0.0236,-183.84944 0.0155,-275.769115 -4.16388,-11.69299 -13.12586,-22.66787 -26.14194,-24.28814 -38.51719,-1.67893 -77.16593,-0.73615 -115.73307,-1.12572 -36.87005,-0.0374 -73.74009,-0.0329 -110.61016,-0.0183 z m -67.08474,49.038135 c 69.16031,0 138.32062,0 207.48093,0 -1.46002,32.4947 27.44569,61.46734 59.16313,63.97246 8.2218,-2.20235 3.72029,8.18812 4.83687,13.04449 0,48.61652 0,97.23305 0,145.84958 -21.92857,0.73165 -43.31037,12.28756 -54.58052,31.33474 -6.03984,9.80111 -10.16468,21.20139 -9.41948,32.85806 -138.3298,0 -276.65962,0 -414.9894,0 -1.61621,-18.65332 -9.42635,-37.20674 -24.470347,-48.93433 -10.928393,-9.57957 -25.263961,-14.28793 -39.599576,-15.29449 0,-52.9435 0,-105.887 0,-158.83051 18.450714,0.12421 36.201741,-9.03326 47.919105,-23.11965 10.696888,-10.86536 14.327088,-26.2362 16.150818,-40.88035 69.16947,0 138.33897,0 207.50847,0 z"
     id="path5773"
     inkscape:connector-curvature="0" />
  <path
     style="fill:#7ac943;fill-opacity:1;stroke:none;stroke-width:1.09207976"
     d="M 307.08208,368.59541 C 249.19147,356.39778 213.01572,289.43018 229.4913,224.9614 c 9.09568,-35.59131 33.79259,-64.9198 63.82583,-75.7955 24.33919,-8.81377 49.16249,-6.54881 72.37297,6.60355 10.45151,5.92239 26.47871,21.3972 33.51954,32.36422 24.33765,37.90918 26.58874,86.92976 5.83889,127.14968 -12.81112,24.83212 -32.06043,41.86591 -56.72867,50.19944 -8.77884,2.96571 -12.04125,3.49612 -23.30752,3.78938 -7.20494,0.18755 -15.27356,-0.11701 -17.93026,-0.67676 z m 53.32989,-50.9227 c 1.8771,-2.38817 2.26255,-4.42677 2.26255,-11.96612 0,-4.99814 -0.55896,-10.31525 -1.24214,-11.8158 -1.61813,-3.55419 -6.07872,-5.02206 -15.26123,-5.02206 h -7.44431 l -0.3073,-45.98238 -0.30731,-45.98238 -2.57716,-2.08772 c -2.14239,-1.7355 -4.36903,-2.0877 -13.19845,-2.0877 -9.65701,0 -11.20696,0.29889 -17.07266,3.29226 -3.54827,1.81076 -9.39887,5.3925 -13.00134,7.95944 -5.95873,4.24588 -6.57322,5.05809 -6.80787,8.99837 -0.21884,3.67484 0.61512,5.57297 5.50291,12.52499 l 5.76085,8.19376 5.14074,-0.0687 L 307,233.56 v 27.54563 27.54563 l -9.79578,0.38183 c -8.44751,0.32928 -10.13785,0.72433 -12.28114,2.87031 -2.25013,2.25295 -2.48537,3.5088 -2.48537,13.26846 0,16.61458 -3.20745,15.37938 39.93545,15.37938 h 35.77627 z"
     id="path5775"
     inkscape:connector-curvature="0" />
</svg>
